<?xml version="1.0" encoding="UTF-8" standalone="no"?>
<!-- Created with Inkscape (http://www.inkscape.org/) -->

<svg
   xmlns:dc="http://purl.org/dc/elements/1.1/"
   xmlns:cc="http://creativecommons.org/ns#"
   xmlns:rdf="http://www.w3.org/1999/02/22-rdf-syntax-ns#"
   xmlns:svg="http://www.w3.org/2000/svg"
   xmlns="http://www.w3.org/2000/svg"
   xmlns:sodipodi="http://sodipodi.sourceforge.net/DTD/sodipodi-0.dtd"
   xmlns:inkscape="http://www.inkscape.org/namespaces/inkscape"
   id="svg2985"
   version="1.1"
   inkscape:version="0.48.2 r9819"
   width="200.02364"
   height="95.383049"
   xml:space="preserve"
   sodipodi:docname="Rss.svg"><metadata
     id="metadata2991"><rdf:RDF><cc:Work
         rdf:about=""><dc:format>image/svg+xml</dc:format><dc:type
           rdf:resource="http://purl.org/dc/dcmitype/StillImage" /><dc:title /></cc:Work></rdf:RDF></metadata><defs
     id="defs2989" /><sodipodi:namedview
     pagecolor="#ffffff"
     bordercolor="#666666"
     borderopacity="1"
     objecttolerance="10"
     gridtolerance="10"
     guidetolerance="10"
     inkscape:pageopacity="0"
     inkscape:pageshadow="2"
     inkscape:window-width="1920"
     inkscape:window-height="1028"
     id="namedview2987"
     showgrid="false"
     fit-margin-top="0.05"
     fit-margin-left="0.05"
     fit-margin-right="0.05"
     fit-margin-bottom="0.05"
     inkscape:zoom="0.95353535"
     inkscape:cx="122.55745"
     inkscape:cy="-62.849115"
     inkscape:window-x="-8"
     inkscape:window-y="-8"
     inkscape:window-maximized="1"
     inkscape:current-layer="g2995" /><g
     id="g2993"
     inkscape:groupmode="layer"
     inkscape:label="LanguageArts"
     transform="matrix(1.25,0,0,-1.25,-28.893659,1013.3759)"><g
       id="g2995"
       transform="translate(-216,-15084)"><path
         style="fill:#d81921;fill-opacity:1;fill-rule:nonzero;stroke:none;stroke-width:0.34918183000000003;stroke-linecap:butt;stroke-linejoin:miter;stroke-miterlimit:4;stroke-opacity:1;stroke-dasharray:none"
         d="m 305.0344,15894.456 c -6.60923,-0.472 -12.21347,-6.028 -12.21379,-13.87 l 0,-37.304 c 0.003,-1.347 -1.00399,-2.51 -2.46169,-2.51 l -11.6457,0 c -25.21987,-0.03 -22.982,32.201 -1.51489,32.239 l 12.87654,0 0,9.373 -13.34995,0 c -8.54872,0 -14.89253,-3.19 -19.17281,-7.953 -4.28028,-4.762 -6.42578,-11.17 -6.43827,-17.563 -0.0133,-6.393 2.10575,-12.764 6.48562,-17.516 4.37986,-4.753 10.99663,-7.954 20.07227,-7.954 l 21.96588,0 c 1.44939,0 2.65105,1.251 2.65105,2.7 l 0,45.493 c -0.008,2.344 1.31003,4.155 3.02979,4.688 1.71974,0.529 3.73772,-0.145 4.92339,-1.847 l 0.0474,-0.05 c 6.24741,-10.221 31.06019,-50.017 31.10255,-50.086 0.67932,-0.972 1.49185,-1.144 2.08298,-0.947 0.59112,0.197 1.18811,0.837 1.18351,2.415 l 0,45.825 c -0.008,2.342 1.31192,4.155 3.02977,4.687 1.71784,0.53 3.69083,-0.144 4.87605,-1.846 l 0,-0.05 0.0946,0 c 6.24743,-10.221 31.0602,-50.017 31.10256,-50.086 0.67364,-0.962 1.45813,-1.15 2.08297,-0.947 0.62483,0.203 1.23542,0.8 1.23084,2.368 l 0,60.5 -9.42071,0 0,-35.315 c 0,0 -5.61645,9.595 -15.24357,26.132 -9.42733,16.194 -27.21971,9.49 -27.22065,-4.45 l 0,-21.682 c 0,0 -5.52121,9.595 -15.14888,26.132 -4.12454,7.083 -9.86637,9.787 -15.00687,9.42 z m -26.65257,-0.237 c -52.42612,0 -51.92015,-74.711 0.71011,-74.749 l 20.59302,0 c 8.8494,0 14.49938,5.241 14.48611,14.911 l 0,18.936 c 0,0 11.56485,-19.114 16.09569,-26.605 7.69753,-12.727 26.32063,-10.225 26.27385,5.681 l 0,20.924 c 0,0 11.51695,-19.112 16.04836,-26.605 7.69751,-12.727 26.36794,-10.223 26.32118,5.681 l 0,61.826 -9.42071,0 0,-60.501 c 0.008,-2.32 -1.2094,-4.044 -2.88775,-4.592 -1.67836,-0.545 -3.61025,0.135 -4.78137,1.799 l -0.0474,0 0,0.09 c 0,0 -24.82367,39.691 -31.14991,50.039 -0.0152,0.02 -0.0321,-0.02 -0.0474,0 -0.006,0 0.006,0.05 0,0.05 -0.65242,0.869 -1.49257,1.064 -2.17766,0.852 -0.70754,-0.22 -1.37738,-0.828 -1.37287,-2.367 l 0,-45.825 c 0.008,-2.31 -1.17758,-4.132 -2.8404,-4.686 -1.66284,-0.555 -3.56859,0.181 -4.73404,1.845 l 0,0.05 -0.0474,0 c 0,0 -24.8399,39.766 -31.1499,50.086 -0.65852,0.941 -1.51348,1.166 -2.22499,0.946 -0.71151,-0.219 -1.37738,-0.826 -1.37288,-2.366 l 0,-0.05 0,-45.493 c 0,-2.758 -2.26741,-5.066 -5.01806,-5.066 l -21.96588,0 c -9.63939,0 -16.9461,3.471 -21.77653,8.71 -4.83042,5.24 -7.20927,12.191 -7.19572,19.126 0.0133,6.934 2.38725,13.928 7.10105,19.173 4.71378,5.244 11.7794,8.695 20.92439,8.711 l 13.34995,0 0,9.467 -11.69304,0 z"
         id="path2997"
         inkscape:connector-curvature="0" /></g></g></svg>